# xmcd
#
# Track frame offsets:
#	150
#	22155
#	46252
#
# Disc length: 902 seconds
#
# Revision: 0
# Processed by: cddbd v1.5.1PL2 Copyright (c) Steve Scherf et al.
# Submitted via: dBpowerAMP V4.0
#
DISCID=1f038403
DTITLE=Roberta Flack - Back Together Again
DYEAR=1900
DGENRE=
TTITLE0=Back Together Again
TTITLE1=The First Time I Ever Saw Your Face
TTITLE2=Killing Me Softly With His Song
EXTD=
EXTT0=
EXTT1=
EXTT2=
PLAYORDER=
